<svg xmlns="http://www.w3.org/2000/svg" xmlns:xlink="http://www.w3.org/1999/xlink" contentStyleType="text/css" data-diagram-type="CLASS" height="800px" preserveAspectRatio="none" style="width:1716px;height:800px;background:#FFFFFF;" version="1.1" viewBox="0 0 1716 800" width="1716px" zoomAndPan="magnify"><title>TimeManagement - Klassendiagramm</title><defs/><g><g class="title" data-source-line="1"><text fill="#000000" font-family="sans-serif" font-size="14" font-weight="bold" lengthAdjust="spacing" textLength="298.0811" x="702.332" y="22.9951">TimeManagement - Klassendiagramm</text></g><!--class Benutzer--><g class="entity" data-entity="Benutzer" data-source-line="3" data-uid="ent0002" id="entity_Benutzer"><rect fill="#F1F1F1" height="113.1875" rx="2.5" ry="2.5" style="stroke:#181818;stroke-width:0.5;" width="309.1582" x="670" y="44.2969"/><ellipse cx="788.7437" cy="60.2969" fill="#ADD1B2" rx="11" ry="11" style="stroke:#181818;stroke-width:1;"/><path d="M791.7124,65.9375 Q791.1343,66.2344 790.4937,66.375 Q789.853,66.5313 789.1499,66.5313 Q786.6499,66.5313 785.3218,64.8906 Q784.0093,63.2344 784.0093,60.1094 Q784.0093,56.9844 785.3218,55.3281 Q786.6499,53.6719 789.1499,53.6719 Q789.853,53.6719 790.4937,53.8281 Q791.1499,53.9844 791.7124,54.2813 L791.7124,57 Q791.0874,56.4219 790.4937,56.1563 Q789.8999,55.875 789.2749,55.875 Q787.9312,55.875 787.2437,56.9531 Q786.5562,58.0156 786.5562,60.1094 Q786.5562,62.2031 787.2437,63.2813 Q787.9312,64.3438 789.2749,64.3438 Q789.8999,64.3438 790.4937,64.0781 Q791.0874,63.7969 791.7124,63.2188 L791.7124,65.9375 Z " fill="#000000"/><text fill="#000000" font-family="sans-serif" font-size="14" lengthAdjust="spacing" textLength="63.1709" x="809.2437" y="65.1436">Benutzer</text><line style="stroke:#181818;stroke-width:0.5;" x1="671" x2="978.1582" y1="76.2969" y2="76.2969"/><rect fill="none" height="6" style="stroke:#C82930;stroke-width:1;" width="6" x="678" y="86.9453"/><text fill="#000000" font-family="sans-serif" font-size="14" lengthAdjust="spacing" textLength="109.9492" x="690" y="93.292">BenutzerID : int</text><rect fill="none" height="6" style="stroke:#C82930;stroke-width:1;" width="6" x="678" y="103.2422"/><text fill="#000000" font-family="sans-serif" font-size="14" lengthAdjust="spacing" textLength="156.6797" x="690" y="109.5889">Benutzername : string</text><rect fill="none" height="6" style="stroke:#C82930;stroke-width:1;" width="6" x="678" y="119.5391"/><text fill="#000000" font-family="sans-serif" font-size="14" lengthAdjust="spacing" textLength="151.9492" x="690" y="125.8857">PasswortHash : string</text><line style="stroke:#181818;stroke-width:0.5;" x1="671" x2="978.1582" y1="133.1875" y2="133.1875"/><ellipse cx="681" cy="146.8359" fill="#84BE84" rx="3" ry="3" style="stroke:#038048;stroke-width:1;"/><text fill="#000000" font-family="sans-serif" font-size="14" lengthAdjust="spacing" textLength="283.1582" x="690" y="150.1826">Authentifizieren(passwort : string) : bool</text></g><!--class Mitarbeiter--><g class="entity" data-entity="Mitarbeiter" data-source-line="10" data-uid="ent0003" id="entity_Mitarbeiter"><rect fill="#F1F1F1" height="178.375" rx="2.5" ry="2.5" style="stroke:#181818;stroke-width:0.5;" width="403.1182" x="815" y="218.2969"/><ellipse cx="973.7886" cy="234.2969" fill="#ADD1B2" rx="11" ry="11" style="stroke:#181818;stroke-width:1;"/><path d="M976.7573,239.9375 Q976.1792,240.2344 975.5386,240.375 Q974.8979,240.5313 974.1948,240.5313 Q971.6948,240.5313 970.3667,238.8906 Q969.0542,237.2344 969.0542,234.1094 Q969.0542,230.9844 970.3667,229.3281 Q971.6948,227.6719 974.1948,227.6719 Q974.8979,227.6719 975.5386,227.8281 Q976.1948,227.9844 976.7573,228.2813 L976.7573,231 Q976.1323,230.4219 975.5386,230.1563 Q974.9448,229.875 974.3198,229.875 Q972.9761,229.875 972.2886,230.9531 Q971.6011,232.0156 971.6011,234.1094 Q971.6011,236.2031 972.2886,237.2813 Q972.9761,238.3438 974.3198,238.3438 Q974.9448,238.3438 975.5386,238.0781 Q976.1323,237.7969 976.7573,237.2188 L976.7573,239.9375 Z " fill="#000000"/><text fill="#000000" font-family="sans-serif" font-size="14" lengthAdjust="spacing" textLength="77.041" x="994.2886" y="239.1436">Mitarbeiter</text><line style="stroke:#181818;stroke-width:0.5;" x1="816" x2="1217.1182" y1="250.2969" y2="250.2969"/><rect fill="none" height="6" style="stroke:#C82930;stroke-width:1;" width="6" x="823" y="260.9453"/><text fill="#000000" font-family="sans-serif" font-size="14" lengthAdjust="spacing" textLength="123.8193" x="835" y="267.292">MitarbeiterID : int</text><rect fill="none" height="6" style="stroke:#C82930;stroke-width:1;" width="6" x="823" y="277.2422"/><text fill="#000000" font-family="sans-serif" font-size="14" lengthAdjust="spacing" textLength="95.1084" x="835" y="283.5889">Name : string</text><rect fill="none" height="6" style="stroke:#C82930;stroke-width:1;" width="6" x="823" y="293.5391"/><text fill="#000000" font-family="sans-serif" font-size="14" lengthAdjust="spacing" textLength="177.2559" x="835" y="299.8857">Einstellungsdatum : Date</text><rect fill="none" height="6" style="stroke:#C82930;stroke-width:1;" width="6" x="823" y="309.8359"/><text fill="#000000" font-family="sans-serif" font-size="14" lengthAdjust="spacing" textLength="213.1445" x="835" y="316.1826">Wochenstunden : double = 38</text><rect fill="none" height="6" style="stroke:#C82930;stroke-width:1;" width="6" x="823" y="326.1328"/><text fill="#000000" font-family="sans-serif" font-size="14" lengthAdjust="spacing" textLength="188.6719" x="835" y="332.4795">Urlaubsanspruch : int = 30</text><rect fill="none" height="6" style="stroke:#C82930;stroke-width:1;" width="6" x="823" y="342.4297"/><text fill="#000000" font-family="sans-serif" font-size="14" lengthAdjust="spacing" textLength="214.8125" x="835" y="348.7764">UeberstundenGesamt : double</text><line style="stroke:#181818;stroke-width:0.5;" x1="816" x2="1217.1182" y1="356.0781" y2="356.0781"/><ellipse cx="826" cy="369.7266" fill="#84BE84" rx="3" ry="3" style="stroke:#038048;stroke-width:1;"/><text fill="#000000" font-family="sans-serif" font-size="14" lengthAdjust="spacing" textLength="301.1709" x="835" y="373.0732">BeantrageUeberstunden(stunden : double)</text><ellipse cx="826" cy="386.0234" fill="#84BE84" rx="3" ry="3" style="stroke:#038048;stroke-width:1;"/><text fill="#000000" font-family="sans-serif" font-size="14" lengthAdjust="spacing" textLength="377.1182" x="835" y="389.3701">ErfasseArbeitszeit(start : DateTime, ende : DateTime)</text></g><!--class HRMitarbeiter--><g class="entity" data-entity="HRMitarbeiter" data-source-line="21" data-uid="ent0004" id="entity_HRMitarbeiter"><rect fill="#F1F1F1" height="80.5938" rx="2.5" ry="2.5" style="stroke:#181818;stroke-width:0.5;" width="448.2217" x="459.5" y="489.7969"/><ellipse cx="630.7129" cy="505.7969" fill="#ADD1B2" rx="11" ry="11" style="stroke:#181818;stroke-width:1;"/><path d="M633.6816,511.4375 Q633.1035,511.7344 632.4629,511.875 Q631.8223,512.0313 631.1191,512.0313 Q628.6191,512.0313 627.291,510.3906 Q625.9785,508.7344 625.9785,505.6094 Q625.9785,502.4844 627.291,500.8281 Q628.6191,499.1719 631.1191,499.1719 Q631.8223,499.1719 632.4629,499.3281 Q633.1191,499.4844 633.6816,499.7813 L633.6816,502.5 Q633.0566,501.9219 632.4629,501.6563 Q631.8691,501.375 631.2441,501.375 Q629.9004,501.375 629.2129,502.4531 Q628.5254,503.5156 628.5254,505.6094 Q628.5254,507.7031 629.2129,508.7813 Q629.9004,509.8438 631.2441,509.8438 Q631.8691,509.8438 632.4629,509.5781 Q633.0566,509.2969 633.6816,508.7188 L633.6816,511.4375 Z " fill="#000000"/><text fill="#000000" font-family="sans-serif" font-size="14" lengthAdjust="spacing" textLength="97.2959" x="651.2129" y="510.6436">HRMitarbeiter</text><line style="stroke:#181818;stroke-width:0.5;" x1="460.5" x2="906.7217" y1="521.7969" y2="521.7969"/><line style="stroke:#181818;stroke-width:0.5;" x1="460.5" x2="906.7217" y1="529.7969" y2="529.7969"/><ellipse cx="470.5" cy="543.4453" fill="#84BE84" rx="3" ry="3" style="stroke:#038048;stroke-width:1;"/><text fill="#000000" font-family="sans-serif" font-size="14" lengthAdjust="spacing" textLength="422.2217" x="479.5" y="546.792">GenehmigeUeberstunden(m : Mitarbeiter, stunden : double)</text><ellipse cx="470.5" cy="559.7422" fill="#84BE84" rx="3" ry="3" style="stroke:#038048;stroke-width:1;"/><text fill="#000000" font-family="sans-serif" font-size="14" lengthAdjust="spacing" textLength="314.6377" x="479.5" y="563.0889">GenehmigeUrlaub(m : Mitarbeiter, tage : int)</text></g><!--class Arbeitszeit--><g class="entity" data-entity="Arbeitszeit" data-source-line="26" data-uid="ent0005" id="entity_Arbeitszeit"><rect fill="#F1F1F1" height="145.7813" rx="2.5" ry="2.5" style="stroke:#181818;stroke-width:0.5;" width="271.3076" x="7" y="457.2969"/><ellipse cx="100.9805" cy="473.2969" fill="#ADD1B2" rx="11" ry="11" style="stroke:#181818;stroke-width:1;"/><path d="M103.9492,478.9375 Q103.3711,479.2344 102.7305,479.375 Q102.0898,479.5313 101.3867,479.5313 Q98.8867,479.5313 97.5586,477.8906 Q96.2461,476.2344 96.2461,473.1094 Q96.2461,469.9844 97.5586,468.3281 Q98.8867,466.6719 101.3867,466.6719 Q102.0898,466.6719 102.7305,466.8281 Q103.3867,466.9844 103.9492,467.2813 L103.9492,470 Q103.3242,469.4219 102.7305,469.1563 Q102.1367,468.875 101.5117,468.875 Q100.168,468.875 99.4805,469.9531 Q98.793,471.0156 98.793,473.1094 Q98.793,475.2031 99.4805,476.2813 Q100.168,477.3438 101.5117,477.3438 Q102.1367,477.3438 102.7305,477.0781 Q103.3242,476.7969 103.9492,476.2188 L103.9492,478.9375 Z " fill="#000000"/><text fill="#000000" font-family="sans-serif" font-size="14" lengthAdjust="spacing" textLength="74.8467" x="121.4805" y="478.1436">Arbeitszeit</text><line style="stroke:#181818;stroke-width:0.5;" x1="8" x2="277.3076" y1="489.2969" y2="489.2969"/><rect fill="none" height="6" style="stroke:#C82930;stroke-width:1;" width="6" x="15" y="499.9453"/><text fill="#000000" font-family="sans-serif" font-size="14" lengthAdjust="spacing" textLength="94.4385" x="27" y="506.292">Datum : Date</text><rect fill="none" height="6" style="stroke:#C82930;stroke-width:1;" width="6" x="15" y="516.2422"/><text fill="#000000" font-family="sans-serif" font-size="14" lengthAdjust="spacing" textLength="141.3125" x="27" y="522.5889">Startzeit : DateTime</text><rect fill="none" height="6" style="stroke:#C82930;stroke-width:1;" width="6" x="15" y="532.5391"/><text fill="#000000" font-family="sans-serif" font-size="14" lengthAdjust="spacing" textLength="133.7178" x="27" y="538.8857">Endzeit : DateTime</text><rect fill="none" height="6" style="stroke:#C82930;stroke-width:1;" width="6" x="15" y="548.8359"/><text fill="#000000" font-family="sans-serif" font-size="14" lengthAdjust="spacing" textLength="119.8271" x="27" y="555.1826">Stunden : double</text><rect fill="none" height="6" style="stroke:#C82930;stroke-width:1;" width="6" x="15" y="565.1328"/><text fill="#000000" font-family="sans-serif" font-size="14" lengthAdjust="spacing" textLength="154.0273" x="27" y="571.4795">Pausen : List&lt;Pause&gt;</text><line style="stroke:#181818;stroke-width:0.5;" x1="8" x2="277.3076" y1="578.7813" y2="578.7813"/><ellipse cx="18" cy="592.4297" fill="#84BE84" rx="3" ry="3" style="stroke:#038048;stroke-width:1;"/><text fill="#000000" font-family="sans-serif" font-size="14" lengthAdjust="spacing" textLength="245.3076" x="27" y="595.7764">BerechneArbeitsstunden() : double</text></g><!--class Pause--><g class="entity" data-entity="Pause" data-source-line="35" data-uid="ent0006" id="entity_Pause"><rect fill="#F1F1F1" height="113.1875" rx="2.5" ry="2.5" style="stroke:#181818;stroke-width:0.5;" width="167.3125" x="59" y="680.2969"/><ellipse cx="117.5054" cy="696.2969" fill="#ADD1B2" rx="11" ry="11" style="stroke:#181818;stroke-width:1;"/><path d="M120.4741,701.9375 Q119.896,702.2344 119.2554,702.375 Q118.6147,702.5313 117.9116,702.5313 Q115.4116,702.5313 114.0835,700.8906 Q112.771,699.2344 112.771,696.1094 Q112.771,692.9844 114.0835,691.3281 Q115.4116,689.6719 117.9116,689.6719 Q118.6147,689.6719 119.2554,689.8281 Q119.9116,689.9844 120.4741,690.2813 L120.4741,693 Q119.8491,692.4219 119.2554,692.1563 Q118.6616,691.875 118.0366,691.875 Q116.6929,691.875 116.0054,692.9531 Q115.3179,694.0156 115.3179,696.1094 Q115.3179,698.2031 116.0054,699.2813 Q116.6929,700.3438 118.0366,700.3438 Q118.6616,700.3438 119.2554,700.0781 Q119.8491,699.7969 120.4741,699.2188 L120.4741,701.9375 Z " fill="#000000"/><text fill="#000000" font-family="sans-serif" font-size="14" lengthAdjust="spacing" textLength="41.8018" x="138.0054" y="701.1436">Pause</text><line style="stroke:#181818;stroke-width:0.5;" x1="60" x2="225.3125" y1="712.2969" y2="712.2969"/><rect fill="none" height="6" style="stroke:#C82930;stroke-width:1;" width="6" x="67" y="722.9453"/><text fill="#000000" font-family="sans-serif" font-size="14" lengthAdjust="spacing" textLength="141.3125" x="79" y="729.292">Startzeit : DateTime</text><rect fill="none" height="6" style="stroke:#C82930;stroke-width:1;" width="6" x="67" y="739.2422"/><text fill="#000000" font-family="sans-serif" font-size="14" lengthAdjust="spacing" textLength="133.7178" x="79" y="745.5889">Endzeit : DateTime</text><rect fill="none" height="6" style="stroke:#C82930;stroke-width:1;" width="6" x="67" y="755.5391"/><text fill="#000000" font-family="sans-serif" font-size="14" lengthAdjust="spacing" textLength="95.9219" x="79" y="761.8857">Bezahlt : bool</text><line style="stroke:#181818;stroke-width:0.5;" x1="60" x2="225.3125" y1="769.1875" y2="769.1875"/><ellipse cx="70" cy="782.8359" fill="#84BE84" rx="3" ry="3" style="stroke:#038048;stroke-width:1;"/><text fill="#000000" font-family="sans-serif" font-size="14" lengthAdjust="spacing" textLength="114.8574" x="79" y="786.1826">Dauer() : double</text></g><!--class Ueberstunde--><g class="entity" data-entity="Ueberstunde" data-source-line="42" data-uid="ent0007" id="entity_Ueberstunde"><rect fill="#F1F1F1" height="96.8906" rx="2.5" ry="2.5" style="stroke:#181818;stroke-width:0.5;" width="147.249" x="943" y="481.7969"/><ellipse cx="969.2966" cy="497.7969" fill="#ADD1B2" rx="11" ry="11" style="stroke:#181818;stroke-width:1;"/><path d="M972.2653,503.4375 Q971.6872,503.7344 971.0466,503.875 Q970.406,504.0313 969.7028,504.0313 Q967.2028,504.0313 965.8747,502.3906 Q964.5622,500.7344 964.5622,497.6094 Q964.5622,494.4844 965.8747,492.8281 Q967.2028,491.1719 969.7028,491.1719 Q970.406,491.1719 971.0466,491.3281 Q971.7028,491.4844 972.2653,491.7813 L972.2653,494.5 Q971.6403,493.9219 971.0466,493.6563 Q970.4528,493.375 969.8278,493.375 Q968.4841,493.375 967.7966,494.4531 Q967.1091,495.5156 967.1091,497.6094 Q967.1091,499.7031 967.7966,500.7813 Q968.4841,501.8438 969.8278,501.8438 Q970.4528,501.8438 971.0466,501.5781 Q971.6403,501.2969 972.2653,500.7188 L972.2653,503.4375 Z " fill="#000000"/><text fill="#000000" font-family="sans-serif" font-size="14" lengthAdjust="spacing" textLength="90.1455" x="985.8069" y="502.6436">Ueberstunde</text><line style="stroke:#181818;stroke-width:0.5;" x1="944" x2="1089.249" y1="513.7969" y2="513.7969"/><rect fill="none" height="6" style="stroke:#C82930;stroke-width:1;" width="6" x="951" y="524.4453"/><text fill="#000000" font-family="sans-serif" font-size="14" lengthAdjust="spacing" textLength="94.4385" x="963" y="530.792">Datum : Date</text><rect fill="none" height="6" style="stroke:#C82930;stroke-width:1;" width="6" x="951" y="540.7422"/><text fill="#000000" font-family="sans-serif" font-size="14" lengthAdjust="spacing" textLength="119.8271" x="963" y="547.0889">Stunden : double</text><rect fill="none" height="6" style="stroke:#C82930;stroke-width:1;" width="6" x="951" y="557.0391"/><text fill="#000000" font-family="sans-serif" font-size="14" lengthAdjust="spacing" textLength="121.249" x="963" y="563.3857">Genehmigt : bool</text><line style="stroke:#181818;stroke-width:0.5;" x1="944" x2="1089.249" y1="570.6875" y2="570.6875"/></g><!--class Urlaub--><g class="entity" data-entity="Urlaub" data-source-line="48" data-uid="ent0008" id="entity_Urlaub"><rect fill="#F1F1F1" height="113.1875" rx="2.5" ry="2.5" style="stroke:#181818;stroke-width:0.5;" width="152.7451" x="1557" y="473.7969"/><ellipse cx="1606.0068" cy="489.7969" fill="#ADD1B2" rx="11" ry="11" style="stroke:#181818;stroke-width:1;"/><path d="M1608.9756,495.4375 Q1608.3975,495.7344 1607.7568,495.875 Q1607.1162,496.0313 1606.4131,496.0313 Q1603.9131,496.0313 1602.585,494.3906 Q1601.2725,492.7344 1601.2725,489.6094 Q1601.2725,486.4844 1602.585,484.8281 Q1603.9131,483.1719 1606.4131,483.1719 Q1607.1162,483.1719 1607.7568,483.3281 Q1608.4131,483.4844 1608.9756,483.7813 L1608.9756,486.5 Q1608.3506,485.9219 1607.7568,485.6563 Q1607.1631,485.375 1606.5381,485.375 Q1605.1943,485.375 1604.5068,486.4531 Q1603.8193,487.5156 1603.8193,489.6094 Q1603.8193,491.7031 1604.5068,492.7813 Q1605.1943,493.8438 1606.5381,493.8438 Q1607.1631,493.8438 1607.7568,493.5781 Q1608.3506,493.2969 1608.9756,492.7188 L1608.9756,495.4375 Z " fill="#000000"/><text fill="#000000" font-family="sans-serif" font-size="14" lengthAdjust="spacing" textLength="46.2314" x="1626.5068" y="494.6436">Urlaub</text><line style="stroke:#181818;stroke-width:0.5;" x1="1558" x2="1708.7451" y1="505.7969" y2="505.7969"/><rect fill="none" height="6" style="stroke:#C82930;stroke-width:1;" width="6" x="1565" y="516.4453"/><text fill="#000000" font-family="sans-serif" font-size="14" lengthAdjust="spacing" textLength="126.7451" x="1577" y="522.792">Startdatum : Date</text><rect fill="none" height="6" style="stroke:#C82930;stroke-width:1;" width="6" x="1565" y="532.7422"/><text fill="#000000" font-family="sans-serif" font-size="14" lengthAdjust="spacing" textLength="119.1504" x="1577" y="539.0889">Enddatum : Date</text><rect fill="none" height="6" style="stroke:#C82930;stroke-width:1;" width="6" x="1565" y="549.0391"/><text fill="#000000" font-family="sans-serif" font-size="14" lengthAdjust="spacing" textLength="121.249" x="1577" y="555.3857">Genehmigt : bool</text><line style="stroke:#181818;stroke-width:0.5;" x1="1558" x2="1708.7451" y1="562.6875" y2="562.6875"/><ellipse cx="1568" cy="576.3359" fill="#84BE84" rx="3" ry="3" style="stroke:#038048;stroke-width:1;"/><text fill="#000000" font-family="sans-serif" font-size="14" lengthAdjust="spacing" textLength="85.3945" x="1577" y="579.6826">Dauer() : int</text></g><!--class Urlaubsverwaltung--><g class="entity" data-entity="Urlaubsverwaltung" data-source-line="55" data-uid="ent0009" id="entity_Urlaubsverwaltung"><rect fill="#F1F1F1" height="96.8906" rx="2.5" ry="2.5" style="stroke:#181818;stroke-width:0.5;" width="370.8662" x="341" y="688.2969"/><ellipse cx="456.0728" cy="704.2969" fill="#ADD1B2" rx="11" ry="11" style="stroke:#181818;stroke-width:1;"/><path d="M459.0415,709.9375 Q458.4634,710.2344 457.8228,710.375 Q457.1821,710.5313 456.479,710.5313 Q453.979,710.5313 452.6509,708.8906 Q451.3384,707.2344 451.3384,704.1094 Q451.3384,700.9844 452.6509,699.3281 Q453.979,697.6719 456.479,697.6719 Q457.1821,697.6719 457.8228,697.8281 Q458.479,697.9844 459.0415,698.2813 L459.0415,701 Q458.4165,700.4219 457.8228,700.1563 Q457.229,699.875 456.604,699.875 Q455.2603,699.875 454.5728,700.9531 Q453.8853,702.0156 453.8853,704.1094 Q453.8853,706.2031 454.5728,707.2813 Q455.2603,708.3438 456.604,708.3438 Q457.229,708.3438 457.8228,708.0781 Q458.4165,707.7969 459.0415,707.2188 L459.0415,709.9375 Z " fill="#000000"/><text fill="#000000" font-family="sans-serif" font-size="14" lengthAdjust="spacing" textLength="132.2207" x="476.5728" y="709.1436">Urlaubsverwaltung</text><line style="stroke:#181818;stroke-width:0.5;" x1="342" x2="710.8662" y1="720.2969" y2="720.2969"/><rect fill="none" height="6" style="stroke:#C82930;stroke-width:1;" width="6" x="349" y="730.9453"/><text fill="#000000" font-family="sans-serif" font-size="14" lengthAdjust="spacing" textLength="153.207" x="361" y="737.292">BasisUrlaub : int = 30</text><line style="stroke:#181818;stroke-width:0.5;" x1="342" x2="710.8662" y1="744.5938" y2="744.5938"/><ellipse cx="352" cy="758.2422" fill="#84BE84" rx="3" ry="3" style="stroke:#038048;stroke-width:1;"/><text fill="#000000" font-family="sans-serif" font-size="14" lengthAdjust="spacing" textLength="344.8662" x="361" y="761.5889">SetzeUrlaubsanspruch(m : Mitarbeiter, tage : int)</text><ellipse cx="352" cy="774.5391" fill="#84BE84" rx="3" ry="3" style="stroke:#038048;stroke-width:1;"/><text fill="#000000" font-family="sans-serif" font-size="14" lengthAdjust="spacing" textLength="332.0898" x="361" y="777.8857">BerechneUrlaubsanspruch(m : Mitarbeiter) : int</text></g><!--class Krankmeldung--><g class="entity" data-entity="Krankmeldung" data-source-line="62" data-uid="ent0010" id="entity_Krankmeldung"><rect fill="#F1F1F1" height="96.8906" rx="2.5" ry="2.5" style="stroke:#181818;stroke-width:0.5;" width="213.5098" x="1125.5" y="481.7969"/><ellipse cx="1176.9268" cy="497.7969" fill="#ADD1B2" rx="11" ry="11" style="stroke:#181818;stroke-width:1;"/><path d="M1179.8955,503.4375 Q1179.3174,503.7344 1178.6768,503.875 Q1178.0361,504.0313 1177.333,504.0313 Q1174.833,504.0313 1173.5049,502.3906 Q1172.1924,500.7344 1172.1924,497.6094 Q1172.1924,494.4844 1173.5049,492.8281 Q1174.833,491.1719 1177.333,491.1719 Q1178.0361,491.1719 1178.6768,491.3281 Q1179.333,491.4844 1179.8955,491.7813 L1179.8955,494.5 Q1179.2705,493.9219 1178.6768,493.6563 Q1178.083,493.375 1177.458,493.375 Q1176.1143,493.375 1175.4268,494.4531 Q1174.7393,495.5156 1174.7393,497.6094 Q1174.7393,499.7031 1175.4268,500.7813 Q1176.1143,501.8438 1177.458,501.8438 Q1178.083,501.8438 1178.6768,501.5781 Q1179.2705,501.2969 1179.8955,500.7188 L1179.8955,503.4375 Z " fill="#000000"/><text fill="#000000" font-family="sans-serif" font-size="14" lengthAdjust="spacing" textLength="102.1563" x="1197.4268" y="502.6436">Krankmeldung</text><line style="stroke:#181818;stroke-width:0.5;" x1="1126.5" x2="1338.0098" y1="513.7969" y2="513.7969"/><rect fill="none" height="6" style="stroke:#C82930;stroke-width:1;" width="6" x="1133.5" y="524.4453"/><text fill="#000000" font-family="sans-serif" font-size="14" lengthAdjust="spacing" textLength="126.7451" x="1145.5" y="530.792">Startdatum : Date</text><rect fill="none" height="6" style="stroke:#C82930;stroke-width:1;" width="6" x="1133.5" y="540.7422"/><text fill="#000000" font-family="sans-serif" font-size="14" lengthAdjust="spacing" textLength="119.1504" x="1145.5" y="547.0889">Enddatum : Date</text><rect fill="none" height="6" style="stroke:#C82930;stroke-width:1;" width="6" x="1133.5" y="557.0391"/><text fill="#000000" font-family="sans-serif" font-size="14" lengthAdjust="spacing" textLength="187.5098" x="1145.5" y="563.3857">BescheinigungPfad : string</text><line style="stroke:#181818;stroke-width:0.5;" x1="1126.5" x2="1338.0098" y1="570.6875" y2="570.6875"/></g><!--class HomeOfficeTag--><g class="entity" data-entity="HomeOfficeTag" data-source-line="68" data-uid="ent0011" id="entity_HomeOfficeTag"><rect fill="#F1F1F1" height="80.5938" rx="2.5" ry="2.5" style="stroke:#181818;stroke-width:0.5;" width="147.249" x="1375" y="489.7969"/><ellipse cx="1393.0647" cy="505.7969" fill="#ADD1B2" rx="11" ry="11" style="stroke:#181818;stroke-width:1;"/><path d="M1396.0335,511.4375 Q1395.4554,511.7344 1394.8147,511.875 Q1394.1741,512.0313 1393.471,512.0313 Q1390.971,512.0313 1389.6429,510.3906 Q1388.3304,508.7344 1388.3304,505.6094 Q1388.3304,502.4844 1389.6429,500.8281 Q1390.971,499.1719 1393.471,499.1719 Q1394.1741,499.1719 1394.8147,499.3281 Q1395.471,499.4844 1396.0335,499.7813 L1396.0335,502.5 Q1395.4085,501.9219 1394.8147,501.6563 Q1394.221,501.375 1393.596,501.375 Q1392.2522,501.375 1391.5647,502.4531 Q1390.8772,503.5156 1390.8772,505.6094 Q1390.8772,507.7031 1391.5647,508.7813 Q1392.2522,509.8438 1393.596,509.8438 Q1394.221,509.8438 1394.8147,509.5781 Q1395.4085,509.2969 1396.0335,508.7188 L1396.0335,511.4375 Z " fill="#000000"/><text fill="#000000" font-family="sans-serif" font-size="14" lengthAdjust="spacing" textLength="108.4385" x="1407.7458" y="510.6436">HomeOfficeTag</text><line style="stroke:#181818;stroke-width:0.5;" x1="1376" x2="1521.249" y1="521.7969" y2="521.7969"/><rect fill="none" height="6" style="stroke:#C82930;stroke-width:1;" width="6" x="1383" y="532.4453"/><text fill="#000000" font-family="sans-serif" font-size="14" lengthAdjust="spacing" textLength="94.4385" x="1395" y="538.792">Datum : Date</text><rect fill="none" height="6" style="stroke:#C82930;stroke-width:1;" width="6" x="1383" y="548.7422"/><text fill="#000000" font-family="sans-serif" font-size="14" lengthAdjust="spacing" textLength="121.249" x="1395" y="555.0889">Genehmigt : bool</text><line style="stroke:#181818;stroke-width:0.5;" x1="1376" x2="1521.249" y1="562.3906" y2="562.3906"/></g><!--class Genehmigung--><g class="entity" data-entity="Genehmigung" data-source-line="73" data-uid="ent0012" id="entity_Genehmigung"><rect fill="#F1F1F1" height="113.1875" rx="2.5" ry="2.5" style="stroke:#181818;stroke-width:0.5;" width="178.9404" x="927" y="680.2969"/><ellipse cx="963.6325" cy="696.2969" fill="#ADD1B2" rx="11" ry="11" style="stroke:#181818;stroke-width:1;"/><path d="M966.6013,701.9375 Q966.0231,702.2344 965.3825,702.375 Q964.7419,702.5313 964.0388,702.5313 Q961.5388,702.5313 960.2106,700.8906 Q958.8981,699.2344 958.8981,696.1094 Q958.8981,692.9844 960.2106,691.3281 Q961.5388,689.6719 964.0388,689.6719 Q964.7419,689.6719 965.3825,689.8281 Q966.0388,689.9844 966.6013,690.2813 L966.6013,693 Q965.9763,692.4219 965.3825,692.1563 Q964.7888,691.875 964.1638,691.875 Q962.82,691.875 962.1325,692.9531 Q961.445,694.0156 961.445,696.1094 Q961.445,698.2031 962.1325,699.2813 Q962.82,700.3438 964.1638,700.3438 Q964.7888,700.3438 965.3825,700.0781 Q965.9763,699.7969 966.6013,699.2188 L966.6013,701.9375 Z " fill="#000000"/><text fill="#000000" font-family="sans-serif" font-size="14" lengthAdjust="spacing" textLength="98.8682" x="982.4397" y="701.1436">Genehmigung</text><line style="stroke:#181818;stroke-width:0.5;" x1="928" x2="1104.9404" y1="712.2969" y2="712.2969"/><rect fill="none" height="6" style="stroke:#C82930;stroke-width:1;" width="6" x="935" y="722.9453"/><text fill="#000000" font-family="sans-serif" font-size="14" lengthAdjust="spacing" textLength="152.9404" x="947" y="729.292">GenehmigungsID : int</text><rect fill="none" height="6" style="stroke:#C82930;stroke-width:1;" width="6" x="935" y="739.2422"/><text fill="#000000" font-family="sans-serif" font-size="14" lengthAdjust="spacing" textLength="79.5293" x="947" y="745.5889">Typ : string</text><rect fill="none" height="6" style="stroke:#C82930;stroke-width:1;" width="6" x="935" y="755.5391"/><text fill="#000000" font-family="sans-serif" font-size="14" lengthAdjust="spacing" textLength="94.4385" x="947" y="761.8857">Datum : Date</text><rect fill="none" height="6" style="stroke:#C82930;stroke-width:1;" width="6" x="935" y="771.8359"/><text fill="#000000" font-family="sans-serif" font-size="14" lengthAdjust="spacing" textLength="98.417" x="947" y="778.1826">Status : string</text><line style="stroke:#181818;stroke-width:0.5;" x1="928" x2="1104.9404" y1="785.4844" y2="785.4844"/></g><!--class Zeiterfassungssystem--><g class="entity" data-entity="Zeiterfassungssystem" data-source-line="80" data-uid="ent0013" id="entity_Zeiterfassungssystem"><rect fill="#F1F1F1" height="96.8906" rx="2.5" ry="2.5" style="stroke:#181818;stroke-width:0.5;" width="391.3262" x="1014" y="52.2969"/><ellipse cx="1128.1191" cy="68.2969" fill="#ADD1B2" rx="11" ry="11" style="stroke:#181818;stroke-width:1;"/><path d="M1131.0879,73.9375 Q1130.5098,74.2344 1129.8691,74.375 Q1129.2285,74.5313 1128.5254,74.5313 Q1126.0254,74.5313 1124.6973,72.8906 Q1123.3848,71.2344 1123.3848,68.1094 Q1123.3848,64.9844 1124.6973,63.3281 Q1126.0254,61.6719 1128.5254,61.6719 Q1129.2285,61.6719 1129.8691,61.8281 Q1130.5254,61.9844 1131.0879,62.2813 L1131.0879,65 Q1130.4629,64.4219 1129.8691,64.1563 Q1129.2754,63.875 1128.6504,63.875 Q1127.3066,63.875 1126.6191,64.9531 Q1125.9316,66.0156 1125.9316,68.1094 Q1125.9316,70.2031 1126.6191,71.2813 Q1127.3066,72.3438 1128.6504,72.3438 Q1129.2754,72.3438 1129.8691,72.0781 Q1130.4629,71.7969 1131.0879,71.2188 L1131.0879,73.9375 Z " fill="#000000"/><text fill="#000000" font-family="sans-serif" font-size="14" lengthAdjust="spacing" textLength="154.5879" x="1148.6191" y="73.1436">Zeiterfassungssystem</text><line style="stroke:#181818;stroke-width:0.5;" x1="1015" x2="1404.3262" y1="84.2969" y2="84.2969"/><ellipse cx="1025" cy="97.9453" fill="none" rx="3" ry="3" style="stroke:#038048;stroke-width:1;"/><text fill="#000000" font-family="sans-serif" font-size="14" lengthAdjust="spacing" textLength="248.7188" x="1034" y="101.292">MitarbeiterListe : List&lt;Mitarbeiter&gt;</text><line style="stroke:#181818;stroke-width:0.5;" x1="1015" x2="1404.3262" y1="108.5938" y2="108.5938"/><ellipse cx="1025" cy="122.2422" fill="#84BE84" rx="3" ry="3" style="stroke:#038048;stroke-width:1;"/><text fill="#000000" font-family="sans-serif" font-size="14" lengthAdjust="spacing" textLength="365.3262" x="1034" y="125.5889">ErfasseZeit(m : Mitarbeiter, arbeitszeit : Arbeitszeit)</text><ellipse cx="1025" cy="138.5391" fill="#84BE84" rx="3" ry="3" style="stroke:#038048;stroke-width:1;"/><text fill="#000000" font-family="sans-serif" font-size="14" lengthAdjust="spacing" textLength="278.7422" x="1034" y="141.8857">GeneriereMonatsreport(m : Mitarbeiter)</text></g><!--reverse link Benutzer to Mitarbeiter--><g class="link" data-entity-1="Benutzer" data-entity-2="Mitarbeiter" data-source-line="86" data-uid="lnk14" id="link_Benutzer_Mitarbeiter"><path codeLine="86" d="M889.0314,170.5287 C906.5814,189.2187 914.28,197.4269 933.59,217.9969" fill="none" id="Benutzer-backto-Mitarbeiter" style="stroke:#181818;stroke-width:1;"/><polygon fill="none" points="876.71,157.4069,884.6575,174.6358,893.4054,166.4215,876.71,157.4069" style="stroke:#181818;stroke-width:1;"/></g><!--reverse link Mitarbeiter to HRMitarbeiter--><g class="link" data-entity-1="Mitarbeiter" data-entity-2="HRMitarbeiter" data-source-line="87" data-uid="lnk15" id="link_Mitarbeiter_HRMitarbeiter"><path codeLine="87" d="M868.4522,406.5501 C819.9022,438.7701 782.39,463.6669 743.37,489.5569" fill="none" id="Mitarbeiter-backto-HRMitarbeiter" style="stroke:#181818;stroke-width:1;"/><polygon fill="none" points="883.45,396.5969,865.1345,401.5508,871.77,411.5494,883.45,396.5969" style="stroke:#181818;stroke-width:1;"/></g><!--link Mitarbeiter to Arbeitszeit--><g class="link" data-entity-1="Mitarbeiter" data-entity-2="Arbeitszeit" data-source-line="89" data-uid="lnk16" id="link_Mitarbeiter_Arbeitszeit"><path codeLine="89" d="M814.71,323.7569 C673.62,339.0769 482.57,368.9369 322.5,426.2969 C299.79,434.4369 281.9262,442.5286 260.1162,454.2386" fill="none" id="Mitarbeiter-to-Arbeitszeit" style="stroke:#181818;stroke-width:1;"/><polygon fill="#181818" points="254.83,457.0769,264.6515,456.3437,259.2352,454.7117,260.8672,449.2954,254.83,457.0769" style="stroke:#181818;stroke-width:1;"/><text fill="#000000" font-family="sans-serif" font-size="13" lengthAdjust="spacing" textLength="8.271" x="798.6743" y="321.169">1</text><text fill="#000000" font-family="sans-serif" font-size="13" lengthAdjust="spacing" textLength="6.5" x="259.6016" y="446.2152">*</text></g><!--link Mitarbeiter to Urlaub--><g class="link" data-entity-1="Mitarbeiter" data-entity-2="Urlaub" data-source-line="90" data-uid="lnk17" id="link_Mitarbeiter_Urlaub"><path codeLine="90" d="M1218.02,347.0069 C1318.03,370.8169 1438.69,406.6469 1539.5,457.2969 C1548.87,462.0069 1553.2608,464.3344 1562.2608,470.4244" fill="none" id="Mitarbeiter-to-Urlaub" style="stroke:#181818;stroke-width:1;"/><polygon fill="#181818" points="1567.23,473.7869,1562.0178,465.4303,1563.089,470.9848,1557.5344,472.0559,1567.23,473.7869" style="stroke:#181818;stroke-width:1;"/><text fill="#000000" font-family="sans-serif" font-size="13" lengthAdjust="spacing" textLength="8.271" x="1226.0511" y="345.3272">1</text><text fill="#000000" font-family="sans-serif" font-size="13" lengthAdjust="spacing" textLength="6.5" x="1552.4031" y="462.649">*</text></g><!--link Mitarbeiter to Ueberstunde--><g class="link" data-entity-1="Mitarbeiter" data-entity-2="Ueberstunde" data-source-line="91" data-uid="lnk18" id="link_Mitarbeiter_Ueberstunde"><path codeLine="91" d="M1016.5,396.5969 C1016.5,425.6869 1016.5,450.9269 1016.5,475.7769" fill="none" id="Mitarbeiter-to-Ueberstunde" style="stroke:#181818;stroke-width:1;"/><polygon fill="#181818" points="1016.5,481.7769,1020.5,472.7769,1016.5,476.7769,1012.5,472.7769,1016.5,481.7769" style="stroke:#181818;stroke-width:1;"/><text fill="#000000" font-family="sans-serif" font-size="13" lengthAdjust="spacing" textLength="8.271" x="1008.1751" y="416.67">1</text><text fill="#000000" font-family="sans-serif" font-size="13" lengthAdjust="spacing" textLength="6.5" x="1010.0778" y="470.6336">*</text></g><!--link Mitarbeiter to Krankmeldung--><g class="link" data-entity-1="Mitarbeiter" data-entity-2="Krankmeldung" data-source-line="92" data-uid="lnk19" id="link_Mitarbeiter_Krankmeldung"><path codeLine="92" d="M1102.8,396.5969 C1131.24,425.6869 1157.576,452.6362 1181.866,477.4862" fill="none" id="Mitarbeiter-to-Krankmeldung" style="stroke:#181818;stroke-width:1;"/><polygon fill="#181818" points="1186.06,481.7769,1182.6294,472.5448,1182.565,478.2013,1176.9085,478.1368,1186.06,481.7769" style="stroke:#181818;stroke-width:1;"/><text fill="#000000" font-family="sans-serif" font-size="13" lengthAdjust="spacing" textLength="8.271" x="1101.6218" y="416.67">1</text><text fill="#000000" font-family="sans-serif" font-size="13" lengthAdjust="spacing" textLength="6.5" x="1172.8712" y="470.6336">*</text></g><!--link Mitarbeiter to HomeOfficeTag--><g class="link" data-entity-1="Mitarbeiter" data-entity-2="HomeOfficeTag" data-source-line="93" data-uid="lnk20" id="link_Mitarbeiter_HomeOfficeTag"><path codeLine="93" d="M1218.26,386.2069 C1265.14,407.0869 1314.02,431.1969 1357.5,457.2969 C1373.05,466.6269 1384.2225,474.5516 1398.2525,485.7616" fill="none" id="Mitarbeiter-to-HomeOfficeTag" style="stroke:#181818;stroke-width:1;"/><polygon fill="#181818" points="1402.94,489.5069,1398.4056,480.7639,1399.0338,486.3858,1393.4119,487.0139,1402.94,489.5069" style="stroke:#181818;stroke-width:1;"/><text fill="#000000" font-family="sans-serif" font-size="13" lengthAdjust="spacing" textLength="8.271" x="1226.3005" y="386.0585">1</text><text fill="#000000" font-family="sans-serif" font-size="13" lengthAdjust="spacing" textLength="6.5" x="1388.918" y="478.6204">*</text></g><!--link HRMitarbeiter to Genehmigung--><g class="link" data-entity-1="HRMitarbeiter" data-entity-2="Genehmigung" data-source-line="95" data-uid="lnk21" id="link_HRMitarbeiter_Genehmigung"><path codeLine="95" d="M748.1,570.9669 C798.98,602.2169 865.3668,642.9876 921.7868,677.6276" fill="none" id="HRMitarbeiter-to-Genehmigung" style="stroke:#181818;stroke-width:1;"/><polygon fill="#181818" points="926.9,680.7669,921.3231,672.6491,922.639,678.1508,917.1373,679.4667,926.9,680.7669" style="stroke:#181818;stroke-width:1;"/><text fill="#000000" font-family="sans-serif" font-size="13" lengthAdjust="spacing" textLength="8.271" x="749.3832" y="590.4511">1</text><text fill="#000000" font-family="sans-serif" font-size="13" lengthAdjust="spacing" textLength="6.5" x="912.3892" y="671.9746">*</text></g><!--link Urlaub to Genehmigung--><g class="link" data-entity-1="Urlaub" data-entity-2="Genehmigung" data-source-line="96" data-uid="lnk22" id="link_Urlaub_Genehmigung"><path codeLine="96" d="M1567.62,586.8969 C1558.53,593.0169 1549.03,598.6869 1539.5,603.2969 C1396.6,672.4769 1219.5828,707.2412 1112.2728,723.4412" fill="none" id="Urlaub-to-Genehmigung" style="stroke:#181818;stroke-width:1;"/><polygon fill="#181818" points="1106.34,724.3369,1115.8363,726.9486,1111.284,723.5905,1114.6421,719.0382,1106.34,724.3369" style="stroke:#181818;stroke-width:1;"/><text fill="#000000" font-family="sans-serif" font-size="13" lengthAdjust="spacing" textLength="8.271" x="1550.7003" y="607.1731">1</text><text fill="#000000" font-family="sans-serif" font-size="13" lengthAdjust="spacing" textLength="8.271" x="1113.831" y="719.811">1</text></g><!--link Ueberstunde to Genehmigung--><g class="link" data-entity-1="Ueberstunde" data-entity-2="Genehmigung" data-source-line="97" data-uid="lnk23" id="link_Ueberstunde_Genehmigung"><path codeLine="97" d="M1016.5,578.9869 C1016.5,609.1969 1016.5,642.4069 1016.5,674.0469" fill="none" id="Ueberstunde-to-Genehmigung" style="stroke:#181818;stroke-width:1;"/><polygon fill="#181818" points="1016.5,680.0469,1020.5,671.0469,1016.5,675.0469,1012.5,671.0469,1016.5,680.0469" style="stroke:#181818;stroke-width:1;"/><text fill="#000000" font-family="sans-serif" font-size="13" lengthAdjust="spacing" textLength="8.271" x="1007.964" y="598.6206">1</text><text fill="#000000" font-family="sans-serif" font-size="13" lengthAdjust="spacing" textLength="8.271" x="1008.0326" y="669.28">1</text></g><!--link Zeiterfassungssystem to Mitarbeiter--><g class="link" data-entity-1="Zeiterfassungssystem" data-entity-2="Mitarbeiter" data-source-line="99" data-uid="lnk24" id="link_Zeiterfassungssystem_Mitarbeiter"><path codeLine="99" d="M1164.49,149.4869 C1145.22,169.9069 1126.1984,190.0636 1103.9984,213.5836" fill="none" id="Zeiterfassungssystem-to-Mitarbeiter" style="stroke:#181818;stroke-width:1;"/><polygon fill="#181818" points="1099.88,217.9469,1108.9665,214.1475,1103.312,214.3108,1103.1488,208.6563,1099.88,217.9469" style="stroke:#181818;stroke-width:1;"/><text fill="#000000" font-family="sans-serif" font-size="13" lengthAdjust="spacing" textLength="8.271" x="1149.9006" y="169.1206">1</text><text fill="#000000" font-family="sans-serif" font-size="13" lengthAdjust="spacing" textLength="6.5" x="1100.3005" y="207.2864">*</text></g><!--link Arbeitszeit to Pause--><g class="link" data-entity-1="Arbeitszeit" data-entity-2="Pause" data-source-line="100" data-uid="lnk25" id="link_Arbeitszeit_Pause"><path codeLine="100" d="M142.5,603.3969 C142.5,628.5769 142.5,650.4469 142.5,674.0869" fill="none" id="Arbeitszeit-to-Pause" style="stroke:#181818;stroke-width:1;"/><polygon fill="#181818" points="142.5,680.0869,146.5,671.0869,142.5,675.0869,138.5,671.0869,142.5,680.0869" style="stroke:#181818;stroke-width:1;"/><text fill="#000000" font-family="sans-serif" font-size="13" lengthAdjust="spacing" textLength="8.271" x="134.117" y="623.1627">1</text><text fill="#000000" font-family="sans-serif" font-size="13" lengthAdjust="spacing" textLength="6.5" x="136.1458" y="669.3248">*</text></g><!--link HRMitarbeiter to Urlaubsverwaltung--><g class="link" data-entity-1="HRMitarbeiter" data-entity-2="Urlaubsverwaltung" data-source-line="102" data-uid="lnk26" id="link_HRMitarbeiter_Urlaubsverwaltung"><path codeLine="102" d="M652.86,571.2169 C627.16,604.6869 594.0434,647.8174 566.7934,683.3174" fill="none" id="HRMitarbeiter-to-Urlaubsverwaltung" style="stroke:#181818;stroke-width:1;"/><polygon fill="#181818" points="563.14,688.0769,571.7931,683.3733,566.1845,684.1106,565.4471,678.5021,563.14,688.0769" style="stroke:#181818;stroke-width:1;"/><polygon fill="#000000" points="607.4551,645.8292,615.2945,640.4445,610.6323,636.865,607.4551,645.8292" style="stroke:#000000;stroke-width:1;"/><text fill="#000000" font-family="sans-serif" font-size="13" lengthAdjust="spacing" textLength="33.4966" x="619.5" y="646.3638">nutzt</text></g><!--link Urlaubsverwaltung to Mitarbeiter--><g class="link" data-entity-1="Urlaubsverwaltung" data-entity-2="Mitarbeiter" data-source-line="103" data-uid="lnk27" id="link_Urlaubsverwaltung_Mitarbeiter"><path codeLine="103" d="M441.9,688.0669 C412.01,666.4069 381.81,637.8369 365.5,603.2969 C337.8,544.6169 325.06,508.0369 365.5,457.2969 C421.1,387.5369 639.1037,348.5293 808.9437,327.9293" fill="none" id="Urlaubsverwaltung-to-Mitarbeiter" style="stroke:#181818;stroke-width:1;"/><polygon fill="#181818" points="814.9,327.2069,805.4838,324.3197,809.9364,327.8089,806.4471,332.2614,814.9,327.2069" style="stroke:#181818;stroke-width:1;"/><polygon fill="#000000" points="374.069,526.8615,365.5544,531.0985,369.671,535.2941,374.069,526.8615" style="stroke:#000000;stroke-width:1;"/><text fill="#000000" font-family="sans-serif" font-size="13" lengthAdjust="spacing" textLength="61.439" x="379.5" y="534.8638">verwaltet</text></g><!--SRC=[dLLDRzim3BtxLmWvDKi3hDXb2Be03LAqGvUjM38Cs8s96LkOBGSIlQBPzjydEVwWPJj5rqFHaa_K8v_uJ98I51kPuWeKH9YY8Z4L3maOWogK46b8qo3OkO1OeChfY5hy3eJzcTQ1Zqin4rAH5rQGeaqOqb95PUxH5dhADDs3YTkvYRZ9ARO4v5uU9MfK5uSIN0F7zgzjbYN1tuhJIXBeBKfYj5ZCO_QvXz6jL8OmIN8LcH0eJorW2OHb-dksiwGCvIf4PLDXbc_jp3w8T-zBn3UTGBureCn1vxluTA43lAq0k4LTLhX30odLTShE5mYAj1M0Go_yIySb-bRldJutHO_cQ7zPA1HZSiITd9V2oeSiC6v6Tl-rExI9k4E5SIez2cuO37qfXZWrnujfT0-IxUuq6aQ5jL2hj-ngi7RT5Q2ceKez5VOdrXxH-ltbfeX-aeQkY__cjGWQTx6gvbgDODoKg7aNvsh6_qDlWKU84whUyud14dBKlHSoKSuFghVfIXpghCz9hNOdFKjWs-Y9TihwNRZ5ywuolr0_GM9vHesDW96cPE8jpqIiqOxMMx7phwkjvWj7AveDpmSDwcUAISWflcum2pJMDAIIaQtnk8UmyPnc2xCKl-ptSeSRYCvfEYnUbU54MSnuvhTvFlZUrxzhb9iUmZ-AUJddSRNDipNDj7OFDb6tM5Wj68lFs-xbodLr16O8CsuFt6Uq-pgiCWLaD1xizw4ZgcDTVwsk_qnRtuI0sr-HR3bYqCgFhaPYEfsBqPiHfpE8EJstuNIpnuCO_W07GQtd4mHjJ-T0zY22SiVgz9MNPYOpX0bwdm6_a8-I-pl75FxfitR9hadCX9EHn3pevjm9Nc4coYHQ_3y0]--></g></svg>